<?xml version="1.0" standalone="no"?>
<!DOCTYPE svg PUBLIC "-//W3C//DTD SVG 20010904//EN"
 "http://www.w3.org/TR/2001/REC-SVG-20010904/DTD/svg10.dtd">
<svg version="1.0" xmlns="http://www.w3.org/2000/svg"
 width="16.000000pt" height="16.000000pt" viewBox="0 0 16.000000 16.000000"
 preserveAspectRatio="xMidYMid meet">

<g transform="translate(0.000000,16.000000) scale(0.100000,-0.100000)"
fill="#000000" stroke="none">
<path d="M10 125 c0 -18 5 -25 20 -25 22 0 26 -17 9 -40 -9 -12 -10 -11 -4 5
4 14 3 17 -4 10 -6 -6 -14 -25 -17 -43 -6 -29 -4 -32 19 -32 14 0 29 4 32 10
3 6 25 11 48 12 l42 1 -45 7 -45 7 38 1 c36 2 38 3 35 35 -1 18 2 39 6 47 4 8
-2 5 -13 -8 -11 -13 -25 -21 -31 -17 -6 4 -18 1 -26 -6 -14 -11 -16 -10 -14
11 4 44 1 50 -25 50 -20 0 -25 -5 -25 -25z m100 -45 c8 -5 11 -10 5 -10 -5 0
-17 5 -25 10 -8 5 -10 10 -5 10 6 0 17 -5 25 -10z"/>
</g>
</svg>
